<svg xmlns="http://www.w3.org/2000/svg" viewBox="35 3 50 55" width="64" height="64">
  <path fill="#00599c" d="M81.366376,42.499707 C81.714813,41.895796 81.932,41.215322 81.932,40.60438 V19.394839 c0,-0.610942 -0.216406,-1.291416 -0.565624,-1.895327 L59.71561,29.999609 Z"/>
  <path fill="#004482" d="m61.639827,54.541207 18.367174,-10.60477 c0.529688,-0.30469 1.010938,-0.832819 1.359375,-1.43673 L59.71561,29.999609 38.065625,42.499707 c0.348437,0.603911 0.829687,1.13204 1.358592,1.437511 l18.367175,10.603989 c1.058593,0.611724 2.790624,0.611724 3.848435,0"/>
  <path fill="#659ad2" d="M81.367157,17.499512 C81.017939,16.895601 80.536689,16.368253 80.007783,16.062 L61.639827,5.4587929 c-1.057811,-0.6117239 -2.789842,-0.6117239 -3.847654,0 L39.424217,16.062 C38.365624,16.672162 37.5,18.172173 37.5,19.394058 v21.20954 c0,0.610943 0.216406,1.291417 0.565625,1.895328 L59.71561,29.998828 Z"/>
  <path fill="#ffffff" d="m59.71561,44.810663 c-8.166401,0 -14.809365,-6.644584 -14.809365,-14.811054 0,-8.16647 6.643745,-14.810272 14.810146,-14.810272 5.269527,0 10.184367,2.83596 12.825772,7.400058 l-6.409371,3.709404 a7.4374948,7.4375581 0 0 0 -6.416401,-3.704716 c-4.08281,0 -7.404683,3.321901 -7.404683,7.406308 0,4.082844 3.321873,7.404745 7.404683,7.404745 a7.4374948,7.4375581 0 0 0 6.417182,-3.704716 l6.409372,3.708622 c-2.641405,4.565661 -7.556246,7.401621 -12.826554,7.401621"/>
  <path fill="#ffffff" d="m71.235133,32.468379 h1.645311 v-1.646107 h1.646093 V29.176947 H72.880444 V27.53084 h-1.645311 v1.645325 h-1.645312 v1.645326 h1.645312 z m6.17109,0 h1.645311 v-1.646107 h1.646093 V29.176947 H79.051534 V27.53084 h-1.645311 v1.645325 H75.76091 v1.645326 h1.645313 z"/>
</svg>